<?xml version="1.0" standalone="no"?>
<!DOCTYPE svg PUBLIC "-//W3C//DTD SVG 20010904//EN"
 "http://www.w3.org/TR/2001/REC-SVG-20010904/DTD/svg10.dtd">
<svg version="1.0" xmlns="http://www.w3.org/2000/svg"
 width="700.000000pt" height="700.000000pt" viewBox="0 0 700.000000 700.000000"
 preserveAspectRatio="xMidYMid meet">
<metadata>
Created by potrace 1.14, written by Peter Selinger 2001-2017
</metadata>
<g transform="translate(0.000000,700.000000) scale(0.100000,-0.100000)"
fill="#000000" stroke="none">
<path d="M2748 5725 c-2 -2 -28 -6 -58 -9 -220 -23 -422 -141 -531 -311 -31
-48 -89 -171 -89 -189 0 -7 -30 -23 -67 -36 -166 -55 -387 -186 -578 -342
-108 -89 -181 -196 -222 -325 -28 -87 -28 -90 -28 -358 0 -218 6 -353 18 -415
1 -5 -13 -66 -30 -130 -4 -14 -8 -131 -10 -261 -4 -233 -4 -236 22 -304 14
-38 46 -103 72 -144 42 -70 46 -82 49 -150 3 -102 12 -155 39 -228 45 -126
139 -238 258 -309 40 -23 66 -51 117 -126 132 -194 267 -332 427 -436 56 -35
69 -40 117 -38 50 2 58 -1 98 -36 258 -230 538 -406 793 -498 50 -18 99 -36
110 -41 19 -8 89 -27 130 -35 23 -5 43 -8 140 -25 78 -13 474 -17 575 -6 232
27 448 134 612 303 31 33 67 73 80 89 12 17 25 32 28 35 10 9 100 149 100 156
0 4 6 15 13 23 14 17 62 121 104 226 51 128 104 335 132 510 18 116 20 137 28
220 8 80 11 718 4 785 -3 31 2 71 15 134 15 66 19 150 19 419 l0 299 -23 18
c-13 11 -25 31 -28 45 -5 28 -30 107 -43 140 -5 11 -23 56 -41 100 -67 169
-182 357 -303 497 -72 84 -172 184 -221 221 -15 12 -42 34 -60 48 -58 49 -230
156 -331 207 -252 127 -577 226 -880 268 -48 6 -551 14 -557 9z"/>
</g>
</svg>
